<?xml version="1.0" encoding="UTF-8" standalone="no"?>
<svg
   width="125.0152"
   height="125.0152"
   version="1.1"
   viewBox="0 0 33.076287 33.076287"
   id="svg70"
   xmlns="http://www.w3.org/2000/svg"
   xmlns:svg="http://www.w3.org/2000/svg">
  <defs
     id="defs42">
    <linearGradient
       id="swatch43">
      <stop
         style="stop-color:#000000;stop-opacity:1;"
         offset="0"
         id="stop43" />
    </linearGradient>
    <linearGradient
       id="linearGradient1372"
       x1="34.705002"
       x2="34.705002"
       y1="-30.726999"
       y2="-38.740002"
       gradientTransform="matrix(0.5297,0,0,0.5297,-1.4817573,27.178243)"
       gradientUnits="userSpaceOnUse">
      <stop
         stop-color="#efb63f"
         offset="0"
         id="stop1" />
      <stop
         stop-color="#f8d650"
         offset="1"
         id="stop2" />
    </linearGradient>
    <linearGradient
       id="linearGradient1380"
       x1="32.125"
       x2="32.125"
       y1="-29.827999"
       y2="-39.838001"
       gradientTransform="matrix(0.5297,0,0,0.5297,-1.4817573,27.178243)"
       gradientUnits="userSpaceOnUse">
      <stop
         stop-color="#a88a47"
         offset="0"
         id="stop3" />
      <stop
         stop-color="#d7cfa7"
         offset="1"
         id="stop4" />
    </linearGradient>
    <linearGradient
       id="linearGradient1384"
       x1="34.705002"
       x2="34.705002"
       y1="-30.726999"
       y2="-38.740002"
       gradientTransform="matrix(0.5297,0,0,0.5297,-9.0654573,27.178243)"
       gradientUnits="userSpaceOnUse">
      <stop
         stop-color="#68d848"
         offset="0"
         id="stop5" />
      <stop
         stop-color="#99f27b"
         offset="1"
         id="stop6" />
    </linearGradient>
    <linearGradient
       id="linearGradient1386"
       x1="32.125"
       x2="32.125"
       y1="-29.827999"
       y2="-39.838001"
       gradientTransform="matrix(0.5297,0,0,0.5297,-9.0654573,27.178243)"
       gradientUnits="userSpaceOnUse">
      <stop
         stop-color="#5a9555"
         offset="0"
         id="stop7" />
      <stop
         stop-color="#ccf4bd"
         offset="1"
         id="stop8" />
    </linearGradient>
    <linearGradient
       id="linearGradient1402"
       x1="34.705002"
       x2="34.705002"
       y1="-30.726999"
       y2="-38.740002"
       gradientTransform="matrix(0.5297,0,0,0.5297,5.8837427,27.178243)"
       gradientUnits="userSpaceOnUse">
      <stop
         stop-color="#e07f3e"
         offset="0"
         id="stop9" />
      <stop
         stop-color="#f1a73e"
         offset="1"
         id="stop10" />
    </linearGradient>
    <linearGradient
       id="linearGradient1404"
       x1="32.125"
       x2="32.125"
       y1="-29.827999"
       y2="-39.838001"
       gradientTransform="matrix(0.5297,0,0,0.5297,5.8837427,27.178243)"
       gradientUnits="userSpaceOnUse">
      <stop
         stop-color="#ae714f"
         offset="0"
         id="stop11" />
      <stop
         stop-color="#ffdc8f"
         offset="1"
         id="stop12" />
    </linearGradient>
    <linearGradient
       id="linearGradient1514"
       x1="34.705002"
       x2="34.705002"
       y1="-30.726999"
       y2="-38.740002"
       gradientTransform="matrix(0.5297,0,0,0.5297,-9.0654573,34.578243)"
       gradientUnits="userSpaceOnUse">
      <stop
         stop-color="#b9281b"
         offset="0"
         id="stop13" />
      <stop
         stop-color="#e54e3b"
         offset="1"
         id="stop14" />
    </linearGradient>
    <linearGradient
       id="linearGradient1516"
       x1="32.125"
       x2="32.125"
       y1="-29.827999"
       y2="-39.838001"
       gradientTransform="matrix(0.5297,0,0,0.5297,-9.0654573,34.578243)"
       gradientUnits="userSpaceOnUse">
      <stop
         stop-color="#84281e"
         offset="0"
         id="stop15" />
      <stop
         stop-color="#df8881"
         offset="1"
         id="stop16" />
    </linearGradient>
    <linearGradient
       id="linearGradient1560"
       x1="34.705002"
       x2="34.705002"
       y1="-30.726999"
       y2="-38.740002"
       gradientTransform="matrix(0.5297,0,0,0.5297,-1.4817573,34.578243)"
       gradientUnits="userSpaceOnUse">
      <stop
         stop-color="#878887"
         offset="0"
         id="stop17" />
      <stop
         stop-color="#d8e3e9"
         offset="1"
         id="stop18" />
    </linearGradient>
    <linearGradient
       id="linearGradient1562"
       x1="32.125"
       x2="32.125"
       y1="-29.827999"
       y2="-39.838001"
       gradientTransform="matrix(0.5297,0,0,0.5297,-1.4817573,34.578243)"
       gradientUnits="userSpaceOnUse">
      <stop
         stop-color="#6c6c6a"
         offset="0"
         id="stop19" />
      <stop
         stop-color="#e3ebef"
         offset="1"
         id="stop20" />
    </linearGradient>
    <linearGradient
       id="linearGradient1590"
       x1="34.705002"
       x2="34.705002"
       y1="-30.726999"
       y2="-38.740002"
       gradientTransform="matrix(0.5297,0,0,0.5297,5.8837427,34.578243)"
       gradientUnits="userSpaceOnUse">
      <stop
         stop-color="#e76872"
         offset="0"
         id="stop21" />
      <stop
         stop-color="#ea4f66"
         offset="1"
         id="stop22" />
    </linearGradient>
    <linearGradient
       id="linearGradient1592"
       x1="32.125"
       x2="32.125"
       y1="-29.827999"
       y2="-39.838001"
       gradientTransform="matrix(0.5297,0,0,0.5297,5.8837427,34.578243)"
       gradientUnits="userSpaceOnUse">
      <stop
         stop-color="#ab5863"
         offset="0"
         id="stop23" />
      <stop
         stop-color="#d7798a"
         offset="1"
         id="stop24" />
    </linearGradient>
    <linearGradient
       id="linearGradient1620"
       x1="34.705002"
       x2="34.705002"
       y1="-30.726999"
       y2="-38.740002"
       gradientTransform="matrix(0.5297,0,0,0.5297,-9.0654573,41.978243)"
       gradientUnits="userSpaceOnUse">
      <stop
         stop-color="#783bb3"
         offset="0"
         id="stop25" />
      <stop
         stop-color="#b76de6"
         offset="1"
         id="stop26" />
    </linearGradient>
    <linearGradient
       id="linearGradient1622"
       x1="32.125"
       x2="32.125"
       y1="-29.827999"
       y2="-39.838001"
       gradientTransform="matrix(0.5297,0,0,0.5297,-9.0654573,41.978243)"
       gradientUnits="userSpaceOnUse">
      <stop
         stop-color="#4b2677"
         offset="0"
         id="stop27" />
      <stop
         stop-color="#b481d5"
         offset=".946"
         id="stop28" />
      <stop
         stop-color="#ddc9ec"
         offset="1"
         id="stop29" />
    </linearGradient>
    <linearGradient
       id="linearGradient1653"
       x1="34.705002"
       x2="34.705002"
       y1="-30.726999"
       y2="-38.740002"
       gradientTransform="matrix(0.5297,0,0,0.5297,-1.4817573,41.978243)"
       gradientUnits="userSpaceOnUse">
      <stop
         stop-color="#3468e0"
         offset="0"
         id="stop30" />
      <stop
         stop-color="#61dafc"
         offset="1"
         id="stop31" />
    </linearGradient>
    <linearGradient
       id="linearGradient1655"
       x1="32.125"
       x2="32.125"
       y1="-29.827999"
       y2="-39.838001"
       gradientTransform="matrix(0.5297,0,0,0.5297,-1.4817573,41.978243)"
       gradientUnits="userSpaceOnUse">
      <stop
         stop-color="#29438e"
         offset="0"
         id="stop32" />
      <stop
         stop-color="#90dcec"
         offset=".946"
         id="stop33" />
      <stop
         stop-color="#abe2eb"
         offset="1"
         id="stop34" />
    </linearGradient>
    <linearGradient
       id="linearGradient1685"
       x1="34.705002"
       x2="34.705002"
       y1="-30.726999"
       y2="-38.740002"
       gradientTransform="matrix(0.5297,0,0,0.5297,5.8837427,41.978243)"
       gradientUnits="userSpaceOnUse">
      <stop
         stop-color="#5bc18f"
         offset="0"
         id="stop35" />
      <stop
         stop-color="#84e4dd"
         offset="1"
         id="stop36" />
    </linearGradient>
    <linearGradient
       id="linearGradient1687"
       x1="32.125"
       x2="32.125"
       y1="-29.827999"
       y2="-39.838001"
       gradientTransform="matrix(0.5297,0,0,0.5297,5.8837427,41.978243)"
       gradientUnits="userSpaceOnUse">
      <stop
         stop-color="#3f8264"
         offset="0"
         id="stop37" />
      <stop
         stop-color="#a2e1e0"
         offset=".946"
         id="stop38" />
      <stop
         stop-color="#b8e4e2"
         offset="1"
         id="stop39" />
    </linearGradient>
    <linearGradient
       id="linearGradient862-3"
       x1="7.9373002"
       x2="7.9373002"
       y1="15.081"
       y2="1.852"
       gradientTransform="matrix(1.9999,0,0,1.9999,-0.3953473,-0.76542729)"
       gradientUnits="userSpaceOnUse">
      <stop
         stop-color="#e8e8e8"
         offset="0"
         id="stop40"
         style="stop-color:#ffffff;stop-opacity:1;" />
      <stop
         stop-color="#fcfcfc"
         offset="1"
         id="stop41" />
    </linearGradient>
    <filter
       id="filter1766"
       x="-0.44318269"
       y="-0.46444839"
       width="1.8863654"
       height="1.9288968"
       color-interpolation-filters="sRGB">
      <feGaussianBlur
         stdDeviation="0.45310276"
         id="feGaussianBlur41" />
    </filter>
    <filter
       id="filter1033"
       x="-0.05808"
       y="-0.05808"
       width="1.11616"
       height="1.11616"
       color-interpolation-filters="sRGB">
      <feGaussianBlur
         stdDeviation="0.71714282"
         id="feGaussianBlur42" />
    </filter>
    <clipPath
       id="clipPath1261">
      <path
         d="m 0.82939,-4.9572 c -3.8115,0 -6.8801,3.0686 -6.8801,6.8801 v 30.927 c 0,3.8115 3.0686,6.8796 6.8801,6.8796 h 31.947 c 3.8115,0 6.8801,-3.0681 6.8801,-6.8796 V 1.9229 c 0,-3.8115 -3.0686,-6.8801 -6.8801,-6.8801 z m 8.1673,7.0816 h 15.874 c 3.8115,0 6.8796,3.0681 6.8796,6.8795 v 15.874 c 0,3.8115 -3.0681,6.8801 -6.8796,6.8801 h -15.874 c -3.8115,0 -6.8801,-3.0686 -6.8801,-6.8801 V 9.0039 c 0,-3.8115 3.0686,-6.8795 6.8801,-6.8795 z"
         fill="#000000"
         style="paint-order:stroke fill markers"
         id="path42" />
    </clipPath>
  </defs>
  <rect
     x="1.7211428"
     y="1.3344429"
     width="29.634001"
     height="29.634001"
     fill="url(#linearGradient862-3)"
     opacity="0.8"
     stroke-width="1.9999"
     id="rect42"
     style="display:inline;opacity:1;fill:url(#linearGradient862-3)"
     ry="6.8799"
     rx="6.8799" />
  <rect
     x="2.1166"
     y="2.5109"
     width="29.634001"
     height="29.634001"
     rx="6.8799"
     ry="6.8799"
     clip-path="url(#clipPath1261)"
     fill="#000000"
     filter="url(#filter1033)"
     opacity="0.15"
     stroke-width="1.9999"
     id="rect43"
     style="display:inline;fill:#000000;fill-opacity:1;stroke-width:1.99995;stroke-dasharray:none"
     transform="translate(-0.3954573,-0.78975729)" />
  <rect
     transform="matrix(2,0,0,2,-0.3426873,0.20131271)"
     x="7.1485"
     y="3.477"
     width="2.6928999"
     height="2.5696001"
     rx="0.3818"
     ry="0.3818"
     fill="#000000"
     filter="url(#filter1766)"
     opacity="0.15"
     stroke="#000000"
     stroke-dashoffset="1"
     stroke-linecap="round"
     stroke-linejoin="round"
     stroke-width="0.21188"
     id="rect44" />
  <rect
     transform="matrix(2,0,0,2,-0.3426873,0.20131271)"
     x="3.3566"
     y="3.477"
     width="2.6928999"
     height="2.5696001"
     rx="0.3818"
     ry="0.3818"
     fill="#000000"
     filter="url(#filter1766)"
     opacity="0.15"
     stroke="#000000"
     stroke-dashoffset="1"
     stroke-linecap="round"
     stroke-linejoin="round"
     stroke-width="0.212"
     id="rect45" />
  <rect
     transform="matrix(2,0,0,2,-0.3426873,0.20131271)"
     x="10.831"
     y="3.477"
     width="2.6928999"
     height="2.5696001"
     rx="0.3818"
     ry="0.3818"
     fill="#000000"
     filter="url(#filter1766)"
     opacity="0.15"
     stroke="#000000"
     stroke-dashoffset="1"
     stroke-linecap="round"
     stroke-linejoin="round"
     stroke-width="0.21188"
     id="rect46" />
  <rect
     transform="matrix(2,0,0,2,-0.3426873,0.20131271)"
     x="3.3566"
     y="7.1773"
     width="2.6928999"
     height="2.5696001"
     rx="0.3818"
     ry="0.3818"
     fill="#000000"
     filter="url(#filter1766)"
     opacity="0.15"
     stroke="#000000"
     stroke-dashoffset="1"
     stroke-linecap="round"
     stroke-linejoin="round"
     stroke-width="0.21188"
     id="rect47" />
  <rect
     transform="matrix(2,0,0,2,-0.3426873,0.20131271)"
     x="7.1485"
     y="7.1773"
     width="2.6928999"
     height="2.5696001"
     rx="0.3818"
     ry="0.3818"
     fill="#000000"
     filter="url(#filter1766)"
     opacity="0.15"
     stroke="#000000"
     stroke-dashoffset="1"
     stroke-linecap="round"
     stroke-linejoin="round"
     stroke-width="0.21188"
     id="rect48" />
  <rect
     transform="matrix(2,0,0,2,-0.3426873,0.20131271)"
     x="10.831"
     y="7.1773"
     width="2.6928999"
     height="2.5696001"
     rx="0.3818"
     ry="0.3818"
     fill="#000000"
     filter="url(#filter1766)"
     opacity="0.15"
     stroke="#000000"
     stroke-dashoffset="1"
     stroke-linecap="round"
     stroke-linejoin="round"
     stroke-width="0.21188"
     id="rect49" />
  <rect
     transform="matrix(2,0,0,2,-0.3426873,0.20131271)"
     x="3.3566"
     y="10.878"
     width="2.6928999"
     height="2.5696001"
     rx="0.3818"
     ry="0.3818"
     fill="#000000"
     filter="url(#filter1766)"
     opacity="0.15"
     stroke="#000000"
     stroke-dashoffset="1"
     stroke-linecap="round"
     stroke-linejoin="round"
     stroke-width="0.21188"
     id="rect50" />
  <rect
     transform="matrix(2,0,0,2,-0.3426873,0.20131271)"
     x="7.1485"
     y="10.878"
     width="2.6928999"
     height="2.5696001"
     rx="0.3818"
     ry="0.3818"
     fill="#000000"
     filter="url(#filter1766)"
     opacity="0.15"
     stroke="#000000"
     stroke-dashoffset="1"
     stroke-linecap="round"
     stroke-linejoin="round"
     stroke-width="0.21188"
     id="rect51" />
  <rect
     transform="matrix(2,0,0,2,-0.3426873,0.20131271)"
     x="10.831"
     y="10.878"
     width="2.6928999"
     height="2.5696001"
     rx="0.3818"
     ry="0.3818"
     fill="#000000"
     filter="url(#filter1766)"
     opacity="0.15"
     stroke="#000000"
     stroke-dashoffset="1"
     stroke-linecap="round"
     stroke-linejoin="round"
     stroke-width="0.21188"
     id="rect52" />
  <path
     d="m 14.717543,6.1810427 h 3.8586 c 0.42304,0 0.7636,0.34056 0.7636,0.7636 v 3.6120003 c 0,0.42304 -0.34056,0.7636 -0.7636,0.7636 h -3.8586 c -0.42304,0 -0.7636,-0.34056 -0.7636,-0.7636 V 6.9446427 c 0,-0.42304 0.34056,-0.7636 0.7636,-0.7636 z"
     color="#000000"
     color-rendering="auto"
     dominant-baseline="auto"
     fill="url(#linearGradient1372)"
     image-rendering="auto"
     shape-rendering="auto"
     solid-color="#000000"
     stop-color="#000000"
     stroke-width="2"
     style="font-variant-ligatures:normal;font-variant-position:normal;font-variant-caps:normal;font-variant-numeric:normal;font-variant-alternates:normal;font-variant-east-asian:normal;font-feature-settings:normal;font-variation-settings:normal;text-indent:0;text-decoration-line:none;text-decoration-style:solid;text-decoration-color:#000000;text-transform:none;text-orientation:mixed;white-space:normal;shape-padding:0;shape-margin:0;inline-size:0;isolation:auto;mix-blend-mode:normal;fill:url(#linearGradient1372)"
     id="path52" />
  <path
     d="m 14.717543,5.9678427 c -0.53676,0 -0.97656,0.43982 -0.97656,0.97656 v 3.6132003 c 0,0.53676 0.43982,0.97266 0.97656,0.97266 h 3.8594 c 0.53676,0 0.97656,-0.4359 0.97656,-0.97266 V 6.9444027 c 0,-0.53676 -0.43982,-0.97656 -0.97656,-0.97656 z m 0,0.42578 h 3.8594 c 0.30932,0 0.55078,0.24146 0.55078,0.55078 v 3.6132003 c 0,0.30932 -0.24146,0.55078 -0.55078,0.55078 h -3.8594 c -0.30932,0 -0.55078,-0.24146 -0.55078,-0.55078 V 6.9444027 c 0,-0.30932 0.24146,-0.55078 0.55078,-0.55078 z"
     color="#000000"
     color-rendering="auto"
     dominant-baseline="auto"
     fill="url(#linearGradient1380)"
     image-rendering="auto"
     shape-rendering="auto"
     solid-color="#000000"
     stop-color="#000000"
     stroke-width="2"
     style="font-variant-ligatures:normal;font-variant-position:normal;font-variant-caps:normal;font-variant-numeric:normal;font-variant-alternates:normal;font-variant-east-asian:normal;font-feature-settings:normal;font-variation-settings:normal;text-indent:0;text-decoration-line:none;text-decoration-style:solid;text-decoration-color:#000000;text-transform:none;text-orientation:mixed;white-space:normal;shape-padding:0;shape-margin:0;inline-size:0;isolation:auto;mix-blend-mode:normal;fill:url(#linearGradient1380)"
     id="path53" />
  <path
     d="m 7.1341427,6.1810427 h 3.8586003 c 0.42304,0 0.7636,0.34056 0.7636,0.7636 v 3.6120003 c 0,0.42304 -0.34056,0.7636 -0.7636,0.7636 H 7.1341427 c -0.42304,0 -0.7636,-0.34056 -0.7636,-0.7636 V 6.9446427 c 0,-0.42304 0.34056,-0.7636 0.7636,-0.7636 z"
     color="#000000"
     color-rendering="auto"
     dominant-baseline="auto"
     fill="url(#linearGradient1384)"
     image-rendering="auto"
     shape-rendering="auto"
     solid-color="#000000"
     stop-color="#000000"
     stroke-width="2"
     style="font-variant-ligatures:normal;font-variant-position:normal;font-variant-caps:normal;font-variant-numeric:normal;font-variant-alternates:normal;font-variant-east-asian:normal;font-feature-settings:normal;font-variation-settings:normal;text-indent:0;text-decoration-line:none;text-decoration-style:solid;text-decoration-color:#000000;text-transform:none;text-orientation:mixed;white-space:normal;shape-padding:0;shape-margin:0;inline-size:0;isolation:auto;mix-blend-mode:normal;fill:url(#linearGradient1384)"
     id="path54" />
  <path
     d="m 7.1357427,5.9678427 c -0.53682,0 -0.97656,0.43974 -0.97656,0.97656 v 3.6132003 c 0,0.53682 0.43974,0.97266 0.97656,0.97266 h 3.8554003 c 0.53682,0 0.97656,-0.43584 0.97656,-0.97266 V 6.9444027 c 0,-0.53682 -0.43974,-0.97656 -0.97656,-0.97656 z m 0,0.42578 h 3.8554003 c 0.30926,0 0.55468,0.24152 0.55468,0.55078 v 3.6132003 c 0,0.30926 -0.24544,0.55078 -0.55468,0.55078 H 7.1357427 c -0.30926,0 -0.55468,-0.24152 -0.55468,-0.55078 V 6.9444027 c 0,-0.30926 0.24544,-0.55078 0.55468,-0.55078 z"
     color="#000000"
     color-rendering="auto"
     dominant-baseline="auto"
     fill="url(#linearGradient1386)"
     image-rendering="auto"
     shape-rendering="auto"
     solid-color="#000000"
     stop-color="#000000"
     stroke-width="2"
     style="font-variant-ligatures:normal;font-variant-position:normal;font-variant-caps:normal;font-variant-numeric:normal;font-variant-alternates:normal;font-variant-east-asian:normal;font-feature-settings:normal;font-variation-settings:normal;text-indent:0;text-decoration-line:none;text-decoration-style:solid;text-decoration-color:#000000;text-transform:none;text-orientation:mixed;white-space:normal;shape-padding:0;shape-margin:0;inline-size:0;isolation:auto;mix-blend-mode:normal;fill:url(#linearGradient1386)"
     id="path55" />
  <path
     d="m 22.082543,6.1810427 h 3.8586 c 0.42304,0 0.7636,0.34056 0.7636,0.7636 v 3.6120003 c 0,0.42304 -0.34056,0.7636 -0.7636,0.7636 h -3.8586 c -0.42304,0 -0.7636,-0.34056 -0.7636,-0.7636 V 6.9446427 c 0,-0.42304 0.34056,-0.7636 0.7636,-0.7636 z"
     color="#000000"
     color-rendering="auto"
     dominant-baseline="auto"
     fill="url(#linearGradient1402)"
     image-rendering="auto"
     shape-rendering="auto"
     solid-color="#000000"
     stop-color="#000000"
     stroke-width="2"
     style="font-variant-ligatures:normal;font-variant-position:normal;font-variant-caps:normal;font-variant-numeric:normal;font-variant-alternates:normal;font-variant-east-asian:normal;font-feature-settings:normal;font-variation-settings:normal;text-indent:0;text-decoration-line:none;text-decoration-style:solid;text-decoration-color:#000000;text-transform:none;text-orientation:mixed;white-space:normal;shape-padding:0;shape-margin:0;inline-size:0;isolation:auto;mix-blend-mode:normal;fill:url(#linearGradient1402)"
     id="path56" />
  <path
     d="m 22.080543,5.9678427 c -0.53676,0 -0.97266,0.43982 -0.97266,0.97656 v 3.6132003 c 0,0.53676 0.4359,0.97266 0.97266,0.97266 h 3.8594 c 0.53676,0 0.97656,-0.4359 0.97656,-0.97266 V 6.9444027 c 0,-0.53676 -0.43982,-0.97656 -0.97656,-0.97656 z m 0,0.42578 h 3.8594 c 0.30932,0 0.55078,0.24146 0.55078,0.55078 v 3.6132003 c 0,0.30932 -0.24146,0.55078 -0.55078,0.55078 h -3.8594 c -0.30932,0 -0.55078,-0.24146 -0.55078,-0.55078 V 6.9444027 c 0,-0.30932 0.24146,-0.55078 0.55078,-0.55078 z"
     color="#000000"
     color-rendering="auto"
     dominant-baseline="auto"
     fill="url(#linearGradient1404)"
     image-rendering="auto"
     shape-rendering="auto"
     solid-color="#000000"
     stop-color="#000000"
     stroke-width="2"
     style="font-variant-ligatures:normal;font-variant-position:normal;font-variant-caps:normal;font-variant-numeric:normal;font-variant-alternates:normal;font-variant-east-asian:normal;font-feature-settings:normal;font-variation-settings:normal;text-indent:0;text-decoration-line:none;text-decoration-style:solid;text-decoration-color:#000000;text-transform:none;text-orientation:mixed;white-space:normal;shape-padding:0;shape-margin:0;inline-size:0;isolation:auto;mix-blend-mode:normal;fill:url(#linearGradient1404)"
     id="path57" />
  <path
     d="m 7.1341427,13.581243 h 3.8586003 c 0.42304,0 0.7636,0.34056 0.7636,0.7636 v 3.612 c 0,0.42304 -0.34056,0.7636 -0.7636,0.7636 H 7.1341427 c -0.42304,0 -0.7636,-0.34056 -0.7636,-0.7636 v -3.612 c 0,-0.42304 0.34056,-0.7636 0.7636,-0.7636 z"
     color="#000000"
     color-rendering="auto"
     dominant-baseline="auto"
     fill="url(#linearGradient1514)"
     image-rendering="auto"
     shape-rendering="auto"
     solid-color="#000000"
     stop-color="#000000"
     stroke-width="2"
     style="font-variant-ligatures:normal;font-variant-position:normal;font-variant-caps:normal;font-variant-numeric:normal;font-variant-alternates:normal;font-variant-east-asian:normal;font-feature-settings:normal;font-variation-settings:normal;text-indent:0;text-decoration-line:none;text-decoration-style:solid;text-decoration-color:#000000;text-transform:none;text-orientation:mixed;white-space:normal;shape-padding:0;shape-margin:0;inline-size:0;isolation:auto;mix-blend-mode:normal;fill:url(#linearGradient1514)"
     id="path58" />
  <path
     d="m 7.1357427,13.370243 c -0.53676,0 -0.97656,0.43982 -0.97656,0.97656 v 3.6094 c 0,0.53676 0.43982,0.97656 0.97656,0.97656 h 3.8554003 c 0.53676,0 0.97656,-0.43982 0.97656,-0.97656 v -3.6094 c 0,-0.53676 -0.43982,-0.97656 -0.97656,-0.97656 z m 0,0.42188 h 3.8554003 c 0.30932,0 0.55468,0.24536 0.55468,0.55468 v 3.6094 c 0,0.30932 -0.24536,0.55468 -0.55468,0.55468 H 7.1357427 c -0.30932,0 -0.55468,-0.24536 -0.55468,-0.55468 v -3.6094 c 0,-0.30932 0.24536,-0.55468 0.55468,-0.55468 z"
     color="#000000"
     color-rendering="auto"
     dominant-baseline="auto"
     fill="url(#linearGradient1516)"
     image-rendering="auto"
     shape-rendering="auto"
     solid-color="#000000"
     stop-color="#000000"
     stroke-width="2"
     style="font-variant-ligatures:normal;font-variant-position:normal;font-variant-caps:normal;font-variant-numeric:normal;font-variant-alternates:normal;font-variant-east-asian:normal;font-feature-settings:normal;font-variation-settings:normal;text-indent:0;text-decoration-line:none;text-decoration-style:solid;text-decoration-color:#000000;text-transform:none;text-orientation:mixed;white-space:normal;shape-padding:0;shape-margin:0;inline-size:0;isolation:auto;mix-blend-mode:normal;fill:url(#linearGradient1516)"
     id="path59" />
  <path
     d="m 14.717543,13.581243 h 3.8586 c 0.42304,0 0.7636,0.34056 0.7636,0.7636 v 3.612 c 0,0.42304 -0.34056,0.7636 -0.7636,0.7636 h -3.8586 c -0.42304,0 -0.7636,-0.34056 -0.7636,-0.7636 v -3.612 c 0,-0.42304 0.34056,-0.7636 0.7636,-0.7636 z"
     color="#000000"
     color-rendering="auto"
     dominant-baseline="auto"
     fill="url(#linearGradient1560)"
     image-rendering="auto"
     shape-rendering="auto"
     solid-color="#000000"
     stop-color="#000000"
     stroke-width="2"
     style="font-variant-ligatures:normal;font-variant-position:normal;font-variant-caps:normal;font-variant-numeric:normal;font-variant-alternates:normal;font-variant-east-asian:normal;font-feature-settings:normal;font-variation-settings:normal;text-indent:0;text-decoration-line:none;text-decoration-style:solid;text-decoration-color:#000000;text-transform:none;text-orientation:mixed;white-space:normal;shape-padding:0;shape-margin:0;inline-size:0;isolation:auto;mix-blend-mode:normal;fill:url(#linearGradient1560)"
     id="path60" />
  <path
     d="m 14.717543,13.370243 c -0.53676,0 -0.97656,0.43982 -0.97656,0.97656 v 3.6094 c 0,0.53676 0.43982,0.97656 0.97656,0.97656 h 3.8594 c 0.53676,0 0.97656,-0.43982 0.97656,-0.97656 v -3.6094 c 0,-0.53676 -0.43982,-0.97656 -0.97656,-0.97656 z m 0,0.42188 h 3.8594 c 0.30932,0 0.55078,0.24536 0.55078,0.55468 v 3.6094 c 0,0.30932 -0.24146,0.55468 -0.55078,0.55468 h -3.8594 c -0.30932,0 -0.55078,-0.24536 -0.55078,-0.55468 v -3.6094 c 0,-0.30932 0.24146,-0.55468 0.55078,-0.55468 z"
     color="#000000"
     color-rendering="auto"
     dominant-baseline="auto"
     fill="url(#linearGradient1562)"
     image-rendering="auto"
     shape-rendering="auto"
     solid-color="#000000"
     stop-color="#000000"
     stroke-width="2"
     style="font-variant-ligatures:normal;font-variant-position:normal;font-variant-caps:normal;font-variant-numeric:normal;font-variant-alternates:normal;font-variant-east-asian:normal;font-feature-settings:normal;font-variation-settings:normal;text-indent:0;text-decoration-line:none;text-decoration-style:solid;text-decoration-color:#000000;text-transform:none;text-orientation:mixed;white-space:normal;shape-padding:0;shape-margin:0;inline-size:0;isolation:auto;mix-blend-mode:normal;fill:url(#linearGradient1562)"
     id="path61" />
  <path
     d="m 22.082543,13.581243 h 3.8586 c 0.42304,0 0.7636,0.34056 0.7636,0.7636 v 3.612 c 0,0.42304 -0.34056,0.7636 -0.7636,0.7636 h -3.8586 c -0.42304,0 -0.7636,-0.34056 -0.7636,-0.7636 v -3.612 c 0,-0.42304 0.34056,-0.7636 0.7636,-0.7636 z"
     color="#000000"
     color-rendering="auto"
     dominant-baseline="auto"
     fill="url(#linearGradient1590)"
     image-rendering="auto"
     shape-rendering="auto"
     solid-color="#000000"
     stop-color="#000000"
     stroke-width="2"
     style="font-variant-ligatures:normal;font-variant-position:normal;font-variant-caps:normal;font-variant-numeric:normal;font-variant-alternates:normal;font-variant-east-asian:normal;font-feature-settings:normal;font-variation-settings:normal;text-indent:0;text-decoration-line:none;text-decoration-style:solid;text-decoration-color:#000000;text-transform:none;text-orientation:mixed;white-space:normal;shape-padding:0;shape-margin:0;inline-size:0;isolation:auto;mix-blend-mode:normal;fill:url(#linearGradient1590)"
     id="path62" />
  <path
     d="m 22.080543,13.370243 c -0.53676,0 -0.97266,0.43982 -0.97266,0.97656 v 3.6094 c 0,0.53676 0.4359,0.97656 0.97266,0.97656 h 3.8594 c 0.53676,0 0.97656,-0.43982 0.97656,-0.97656 v -3.6094 c 0,-0.53676 -0.43982,-0.97656 -0.97656,-0.97656 z m 0,0.42188 h 3.8594 c 0.30932,0 0.55078,0.24536 0.55078,0.55468 v 3.6094 c 0,0.30932 -0.24146,0.55468 -0.55078,0.55468 h -3.8594 c -0.30932,0 -0.55078,-0.24536 -0.55078,-0.55468 v -3.6094 c 0,-0.30932 0.24146,-0.55468 0.55078,-0.55468 z"
     color="#000000"
     color-rendering="auto"
     dominant-baseline="auto"
     fill="url(#linearGradient1592)"
     image-rendering="auto"
     shape-rendering="auto"
     solid-color="#000000"
     stop-color="#000000"
     stroke-width="2"
     style="font-variant-ligatures:normal;font-variant-position:normal;font-variant-caps:normal;font-variant-numeric:normal;font-variant-alternates:normal;font-variant-east-asian:normal;font-feature-settings:normal;font-variation-settings:normal;text-indent:0;text-decoration-line:none;text-decoration-style:solid;text-decoration-color:#000000;text-transform:none;text-orientation:mixed;white-space:normal;shape-padding:0;shape-margin:0;inline-size:0;isolation:auto;mix-blend-mode:normal;fill:url(#linearGradient1592)"
     id="path63" />
  <path
     d="m 7.1341427,20.984243 h 3.8586003 c 0.42304,0 0.7636,0.34056 0.7636,0.7636 v 3.612 c 0,0.42304 -0.34056,0.7636 -0.7636,0.7636 H 7.1341427 c -0.42304,0 -0.7636,-0.34056 -0.7636,-0.7636 v -3.612 c 0,-0.42304 0.34056,-0.7636 0.7636,-0.7636 z"
     color="#000000"
     color-rendering="auto"
     dominant-baseline="auto"
     fill="url(#linearGradient1620)"
     image-rendering="auto"
     shape-rendering="auto"
     solid-color="#000000"
     stop-color="#000000"
     stroke-width="2"
     style="font-variant-ligatures:normal;font-variant-position:normal;font-variant-caps:normal;font-variant-numeric:normal;font-variant-alternates:normal;font-variant-east-asian:normal;font-feature-settings:normal;font-variation-settings:normal;text-indent:0;text-decoration-line:none;text-decoration-style:solid;text-decoration-color:#000000;text-transform:none;text-orientation:mixed;white-space:normal;shape-padding:0;shape-margin:0;inline-size:0;isolation:auto;mix-blend-mode:normal;fill:url(#linearGradient1620)"
     id="path64" />
  <path
     d="m 7.1357427,20.772243 c -0.53676,0 -0.97656,0.4359 -0.97656,0.97266 v 3.6132 c 0,0.53676 0.43982,0.97656 0.97656,0.97656 h 3.8554003 c 0.53676,0 0.97656,-0.4398 0.97656,-0.97656 v -3.6132 c 0,-0.53676 -0.43982,-0.97266 -0.97656,-0.97266 z m 0,0.42188 h 3.8554003 c 0.30932,0 0.55468,0.24146 0.55468,0.55078 v 3.6132 c 0,0.30932 -0.24536,0.55078 -0.55468,0.55078 H 7.1357427 c -0.30932,0 -0.55468,-0.24146 -0.55468,-0.55078 v -3.6132 c 0,-0.30932 0.24536,-0.55078 0.55468,-0.55078 z"
     color="#000000"
     color-rendering="auto"
     dominant-baseline="auto"
     fill="url(#linearGradient1622)"
     image-rendering="auto"
     shape-rendering="auto"
     solid-color="#000000"
     stop-color="#000000"
     stroke-width="2"
     style="font-variant-ligatures:normal;font-variant-position:normal;font-variant-caps:normal;font-variant-numeric:normal;font-variant-alternates:normal;font-variant-east-asian:normal;font-feature-settings:normal;font-variation-settings:normal;text-indent:0;text-decoration-line:none;text-decoration-style:solid;text-decoration-color:#000000;text-transform:none;text-orientation:mixed;white-space:normal;shape-padding:0;shape-margin:0;inline-size:0;isolation:auto;mix-blend-mode:normal;fill:url(#linearGradient1622)"
     id="path65" />
  <path
     d="m 14.717543,20.984243 h 3.8586 c 0.42304,0 0.7636,0.34056 0.7636,0.7636 v 3.612 c 0,0.42304 -0.34056,0.7636 -0.7636,0.7636 h -3.8586 c -0.42304,0 -0.7636,-0.34056 -0.7636,-0.7636 v -3.612 c 0,-0.42304 0.34056,-0.7636 0.7636,-0.7636 z"
     color="#000000"
     color-rendering="auto"
     dominant-baseline="auto"
     fill="url(#linearGradient1653)"
     image-rendering="auto"
     shape-rendering="auto"
     solid-color="#000000"
     stop-color="#000000"
     stroke-width="2"
     style="font-variant-ligatures:normal;font-variant-position:normal;font-variant-caps:normal;font-variant-numeric:normal;font-variant-alternates:normal;font-variant-east-asian:normal;font-feature-settings:normal;font-variation-settings:normal;text-indent:0;text-decoration-line:none;text-decoration-style:solid;text-decoration-color:#000000;text-transform:none;text-orientation:mixed;white-space:normal;shape-padding:0;shape-margin:0;inline-size:0;isolation:auto;mix-blend-mode:normal;fill:url(#linearGradient1653)"
     id="path66" />
  <path
     d="m 14.717543,20.772243 c -0.53676,0 -0.97656,0.4359 -0.97656,0.97266 v 3.6132 c 0,0.53676 0.43982,0.97656 0.97656,0.97656 h 3.8594 c 0.53676,0 0.97656,-0.4398 0.97656,-0.97656 v -3.6132 c 0,-0.53676 -0.43982,-0.97266 -0.97656,-0.97266 z m 0,0.42188 h 3.8594 c 0.30932,0 0.55078,0.24146 0.55078,0.55078 v 3.6132 c 0,0.30932 -0.24146,0.55078 -0.55078,0.55078 h -3.8594 c -0.30932,0 -0.55078,-0.24146 -0.55078,-0.55078 v -3.6132 c 0,-0.30932 0.24146,-0.55078 0.55078,-0.55078 z"
     color="#000000"
     color-rendering="auto"
     dominant-baseline="auto"
     fill="url(#linearGradient1655)"
     image-rendering="auto"
     shape-rendering="auto"
     solid-color="#000000"
     stop-color="#000000"
     stroke-width="2"
     style="font-variant-ligatures:normal;font-variant-position:normal;font-variant-caps:normal;font-variant-numeric:normal;font-variant-alternates:normal;font-variant-east-asian:normal;font-feature-settings:normal;font-variation-settings:normal;text-indent:0;text-decoration-line:none;text-decoration-style:solid;text-decoration-color:#000000;text-transform:none;text-orientation:mixed;white-space:normal;shape-padding:0;shape-margin:0;inline-size:0;isolation:auto;mix-blend-mode:normal;fill:url(#linearGradient1655)"
     id="path67" />
  <path
     d="m 22.082543,20.984243 h 3.8586 c 0.42304,0 0.7636,0.34056 0.7636,0.7636 v 3.612 c 0,0.42304 -0.34056,0.7636 -0.7636,0.7636 h -3.8586 c -0.42304,0 -0.7636,-0.34056 -0.7636,-0.7636 v -3.612 c 0,-0.42304 0.34056,-0.7636 0.7636,-0.7636 z"
     color="#000000"
     color-rendering="auto"
     dominant-baseline="auto"
     fill="url(#linearGradient1685)"
     image-rendering="auto"
     shape-rendering="auto"
     solid-color="#000000"
     stop-color="#000000"
     stroke-width="2"
     style="font-variant-ligatures:normal;font-variant-position:normal;font-variant-caps:normal;font-variant-numeric:normal;font-variant-alternates:normal;font-variant-east-asian:normal;font-feature-settings:normal;font-variation-settings:normal;text-indent:0;text-decoration-line:none;text-decoration-style:solid;text-decoration-color:#000000;text-transform:none;text-orientation:mixed;white-space:normal;shape-padding:0;shape-margin:0;inline-size:0;isolation:auto;mix-blend-mode:normal;fill:url(#linearGradient1685)"
     id="path68" />
  <path
     d="m 22.080543,20.772243 c -0.53676,0 -0.97266,0.4359 -0.97266,0.97266 v 3.6132 c 0,0.53676 0.4359,0.97656 0.97266,0.97656 h 3.8594 c 0.53676,0 0.97656,-0.4398 0.97656,-0.97656 v -3.6132 c 0,-0.53676 -0.43982,-0.97266 -0.97656,-0.97266 z m 0,0.42188 h 3.8594 c 0.30932,0 0.55078,0.24146 0.55078,0.55078 v 3.6132 c 0,0.30932 -0.24146,0.55078 -0.55078,0.55078 h -3.8594 c -0.30932,0 -0.55078,-0.24146 -0.55078,-0.55078 v -3.6132 c 0,-0.30932 0.24146,-0.55078 0.55078,-0.55078 z"
     color="#000000"
     color-rendering="auto"
     dominant-baseline="auto"
     fill="url(#linearGradient1687)"
     image-rendering="auto"
     shape-rendering="auto"
     solid-color="#000000"
     stop-color="#000000"
     stroke-width="2"
     style="font-variant-ligatures:normal;font-variant-position:normal;font-variant-caps:normal;font-variant-numeric:normal;font-variant-alternates:normal;font-variant-east-asian:normal;font-feature-settings:normal;font-variation-settings:normal;text-indent:0;text-decoration-line:none;text-decoration-style:solid;text-decoration-color:#000000;text-transform:none;text-orientation:mixed;white-space:normal;shape-padding:0;shape-margin:0;inline-size:0;isolation:auto;mix-blend-mode:normal;fill:url(#linearGradient1687)"
     id="path69" />
  <style
     id="style69"><![CDATA[.B{clip-path:url(#C)}.C{fill:#3e2723}.D{fill-opacity:.15}.E{fill-opacity:.2}]]></style>
  <style
     id="style70"><![CDATA[.B{clip-path:url(#C)}.C{fill:#3e2723}.D{fill-opacity:.15}.E{fill-opacity:.2}]]></style>
</svg>
